# xmcd
#
# Track frame offsets:
#	150
#	15939
#	33629
#	49871
#	69650
#	86727
#	104636
#	123996
#	140526
#	157841
#	176362
#	192673
#
# Disc length: 2934 seconds
#
# Revision: 0
# Processed by: cddbd v1.4PL0 Copyright (c) Steve Scherf et al.
# Submitted via: EasyCDDAExtractor 4.6.9.1
#
DISCID=a20b740c
DTITLE=Starlight - Viva A Mulher
DYEAR=2000
DGENRE=
TTITLE0=Viva As Mulheres
TTITLE1=O Fiado
TTITLE2=O Reino das Criancas
TTITLE3=Cancao Da Familia
TTITLE4=Nao Olhes Nao Olhes
TTITLE5=Os Tubaroes
TTITLE6=Canto Da Salvacao
TTITLE7=Ha Gente Boa
TTITLE8=Ai que Morena
TTITLE9=Tenho Medo De Te Perder
TTITLE10=Milla
TTITLE11=Madeira MIx
EXTD=
EXTT0=
EXTT1=
EXTT2=
EXTT3=
EXTT4=
EXTT5=
EXTT6=
EXTT7=
EXTT8=
EXTT9=
EXTT10=
EXTT11=
PLAYORDER=
